<svg width="1060" height="816" viewBox="0 0 1060 816" fill="none" xmlns="http://www.w3.org/2000/svg">
<g clip-path="url(#clip0_1_28)">
<g opacity="0.7">
<path d="M245.083 657.609C146.828 538.689 174.438 107.485 431.111 104.106C652.107 101.211 791.811 226.853 868.352 315.386C934.157 391.432 1004.84 528.494 1004.84 528.494" stroke="white" stroke-width="1.5" stroke-miterlimit="10" stroke-linecap="round"/>
<path d="M218.661 647.28C130.195 523.902 164.845 111.415 416.12 107.497C632.047 104.115 771.349 225.326 848.672 313.874C917.666 392.34 989.811 530.758 992.007 542.756" stroke="white" stroke-width="1.4583" stroke-miterlimit="10" stroke-linecap="round"/>
<path d="M192.33 637.077C113.545 509.224 155.344 115.471 401.112 110.996C612.059 107.255 750.708 224.218 829.1 312.379C901.048 393.339 974.871 533.149 979.19 556.909" stroke="white" stroke-width="1.4167" stroke-miterlimit="10" stroke-linecap="round"/>
<path d="M165.889 626.857C97.0221 494.455 145.86 119.419 386.104 114.495C591.963 110.377 730.102 222.891 809.511 310.994C884.539 394.356 959.822 535.522 966.337 571.281" stroke="white" stroke-width="1.375" stroke-miterlimit="10" stroke-linecap="round"/>
<path d="M139.576 616.545C80.372 479.777 136.359 123.475 371.205 118.012C571.994 113.407 709.714 221.6 789.922 309.608C868.031 395.373 944.881 537.913 953.61 585.561" stroke="white" stroke-width="1.3333" stroke-miterlimit="10" stroke-linecap="round"/>
<path d="M113.136 606.324C63.7396 464.99 126.876 127.422 356.197 121.511C552.007 116.547 689.234 220.182 770.333 308.223C851.631 396.408 929.941 540.304 940.757 599.932" stroke="white" stroke-width="1.2917" stroke-miterlimit="10" stroke-linecap="round"/>
<path d="M86.6955 596.104C47.0895 450.312 117.265 131.461 341.08 124.993C532.037 119.577 668.755 218.764 750.652 306.711C835.032 397.298 914.91 542.568 927.94 614.085" stroke="white" stroke-width="1.25" stroke-miterlimit="10" stroke-linecap="round"/>
<path d="M60.382 585.792C30.5662 435.543 107.891 135.426 326.199 128.401C511.959 122.59 648.367 217.473 731.08 305.216C818.65 398.224 899.969 544.959 915.104 628.347" stroke="white" stroke-width="1.2083" stroke-miterlimit="10" stroke-linecap="round"/>
<path d="M33.9418 575.571C13.9161 420.865 98.2981 139.356 311.191 131.9C491.989 125.621 627.887 216.055 711.382 303.813C802.032 399.223 884.811 547.314 902.251 642.719" stroke="white" stroke-width="1.1667" stroke-miterlimit="10" stroke-linecap="round"/>
<path d="M7.6106 565.368C-2.71628 406.078 88.906 143.43 296.183 135.399C472.002 128.76 607.517 214.655 691.793 302.427C785.65 400.149 869.871 549.705 889.416 656.981" stroke="white" stroke-width="1.125" stroke-miterlimit="10" stroke-linecap="round"/>
<path d="M-18.8119 555.039C-19.2572 391.418 79.4224 147.377 281.175 138.899C451.923 131.773 587.037 213.237 672.113 300.915C769.177 400.948 854.839 551.969 876.58 671.243" stroke="white" stroke-width="1.0833" stroke-miterlimit="10" stroke-linecap="round"/>
<path d="M-45.1431 544.836C-35.8897 376.631 69.9388 151.325 266.293 142.306C431.954 134.804 566.685 211.728 652.632 299.547C752.887 402 839.99 554.486 863.854 685.523" stroke="white" stroke-width="1.0417" stroke-miterlimit="10" stroke-linecap="round"/>
<path d="M-71.5834 534.615C-52.5397 361.953 60.3285 155.363 251.285 145.806C411.985 137.834 546.314 210.327 632.952 298.035C736.414 402.799 824.85 556.733 850.91 699.768" stroke="white" stroke-miterlimit="10" stroke-linecap="round"/>
<path d="M-96.9048 518.186C-63.3045 311.672 62.1483 90.2958 248.543 73.6657C405.144 59.9046 537.878 135.333 623.368 234.947C727.683 356.538 813.869 534.707 838.201 713.939" stroke="white" stroke-width="0.9583" stroke-miterlimit="10" stroke-linecap="round"/>
<path d="M-124.337 514.083C-85.6955 332.397 41.3613 163.258 221.287 152.695C371.919 143.987 505.482 207.4 593.682 295.137C703.558 404.524 794.878 561.388 825.239 728.292" stroke="white" stroke-width="0.9167" stroke-miterlimit="10" stroke-linecap="round"/>
<path d="M-150.777 503.862C-102.346 317.719 31.8601 167.314 206.279 156.194C351.949 147.017 485.112 206 574.093 293.752C687.303 405.358 779.937 563.778 812.512 742.572" stroke="white" stroke-width="0.875" stroke-miterlimit="10" stroke-linecap="round"/>
<path d="M-177.091 493.55C-118.996 303.041 22.3765 171.262 191.271 159.694C331.853 150.139 464.886 204.399 554.395 292.348C670.957 406.066 764.87 566.261 799.55 756.926" stroke="white" stroke-width="0.8333" stroke-miterlimit="10" stroke-linecap="round"/>
<path d="M-203.531 483.33C-135.519 288.272 12.8752 175.318 176.263 163.193C311.884 153.17 444.406 202.981 534.823 290.854C654.575 406.991 749.948 568.542 786.824 771.206" stroke="white" stroke-width="0.7917" stroke-miterlimit="10" stroke-linecap="round"/>
<path d="M-229.862 473.127C-87.9126 108.6 313.756 95.3749 515.234 289.468C638.193 407.917 734.898 570.915 773.989 785.468" stroke="white" stroke-width="0.75" stroke-miterlimit="10" stroke-linecap="round"/>
</g>
</g>
<defs>
<clipPath id="clip0_1_28">
<rect width="1228.86" height="627.305" fill="white" transform="translate(-153.587) rotate(9.21096)"/>
</clipPath>
</defs>
</svg>
